<svg xmlns="http://www.w3.org/2000/svg" xmlns:xlink="http://www.w3.org/1999/xlink" version="1.1" data-diagram-type="DESCRIPTION" style="width:1480px;height:730px;background:#FFFFFF;" width="1480px" height="730px" viewBox="0 0 1480 730" zoomAndPan="magnify" preserveAspectRatio="none" contentStyleType="text/css"><?plantuml 1.2026.7beta6?><defs/><g font-family="sans-serif" lengthAdjust="spacing"><g class="title" data-source-line="1"><text x="531.984" y="22.995" fill="#000" font-size="14" textLength="409.814" font-weight="700">Deployment View — Click to Live Distribution Model</text></g><!--cluster DEV--><g class="cluster" data-qualified-name="DEV" id="ent0001" data-source-line="6"><polygon points="16,53.297,26,43.297,962,43.297,962,232.897,952,242.897,16,242.897,16,53.297" fill="none" style="stroke:#181818;stroke-width:1;stroke-linejoin:miter;stroke-miterlimit:10;"/><line x1="952" y1="53.297" x2="962" y2="43.297" style="stroke:#181818;stroke-width:1;"/><line x1="16" y1="53.297" x2="952" y2="53.297" style="stroke:#181818;stroke-width:1;"/><line x1="952" y1="53.297" x2="952" y2="242.897" style="stroke:#181818;stroke-width:1;"/><text x="379.761" y="69.292" fill="#000" font-size="14" textLength="210.479" font-weight="700">Development Environment</text></g><!--cluster WS--><g class="cluster" data-qualified-name="DEV.WS" id="ent0002" data-source-line="7"><polygon points="48,109.297,58,99.297,910,99.297,910,200.897,900,210.897,48,210.897,48,109.297" fill="none" style="stroke:#181818;stroke-width:1;stroke-linejoin:miter;stroke-miterlimit:10;"/><line x1="900" y1="109.297" x2="910" y2="99.297" style="stroke:#181818;stroke-width:1;"/><line x1="48" y1="109.297" x2="900" y2="109.297" style="stroke:#181818;stroke-width:1;"/><line x1="900" y1="109.297" x2="900" y2="210.897" style="stroke:#181818;stroke-width:1;"/><text x="383.863" y="125.292" fill="#000" font-size="14" textLength="182.273" font-weight="700">Developer Workstation</text></g><!--cluster PE--><g class="cluster" data-qualified-name="PE" id="ent0007" data-source-line="15"><polygon points="376,332.897,386,322.897,1214,322.897,1214,695.117,1204,705.117,376,705.117,376,332.897" fill="none" style="stroke:#181818;stroke-width:1;stroke-linejoin:miter;stroke-miterlimit:10;"/><line x1="1204" y1="332.897" x2="1214" y2="322.897" style="stroke:#181818;stroke-width:1;"/><line x1="376" y1="332.897" x2="1204" y2="332.897" style="stroke:#181818;stroke-width:1;"/><line x1="1204" y1="332.897" x2="1204" y2="705.117" style="stroke:#181818;stroke-width:1;"/><text x="713.204" y="348.892" fill="#000" font-size="14" textLength="155.593" font-weight="700">Player Environment</text></g><!--cluster PM--><g class="cluster" data-qualified-name="PE.PM" id="ent0008" data-source-line="16"><polygon points="408,388.897,418,378.897,1161,378.897,1161,663.117,1151,673.117,408,673.117,408,388.897" fill="none" style="stroke:#181818;stroke-width:1;stroke-linejoin:miter;stroke-miterlimit:10;"/><line x1="1151" y1="388.897" x2="1161" y2="378.897" style="stroke:#181818;stroke-width:1;"/><line x1="408" y1="388.897" x2="1151" y2="388.897" style="stroke:#181818;stroke-width:1;"/><line x1="1151" y1="388.897" x2="1151" y2="673.117" style="stroke:#181818;stroke-width:1;"/><text x="675.702" y="404.892" fill="#000" font-size="14" textLength="209.597" font-weight="700">Player Machine (Windows)</text></g><!--entity GODOT--><g class="entity" data-qualified-name="DEV.WS.GODOT" id="ent0003" data-source-line="8"><rect x="63.9" y="139.297" width="200.208" height="55.594" fill="#F1F1F1" style="stroke:#181818;stroke-width:0.5;" rx="2.5" ry="2.5"/><polygon points="247.108,144.297,247.108,158.297,259.108,158.297,259.108,150.297,253.108,144.297,247.108,144.297" fill="#F1F1F1" style="stroke:#181818;stroke-width:0.5;stroke-linejoin:miter;stroke-miterlimit:10;"/><line x1="253.108" y1="144.297" x2="253.108" y2="150.297" style="stroke:#181818;stroke-width:0.5;"/><line x1="259.108" y1="150.297" x2="253.108" y2="150.297" style="stroke:#181818;stroke-width:0.5;"/><text x="73.9" y="165.292" fill="#000" font-size="14" textLength="126.684">Godot Editor 4.6+</text><text x="73.9" y="181.589" fill="#000" font-size="14" textLength="170.208">(Forward Plus Renderer)</text></g><!--entity SRC--><g class="entity" data-qualified-name="DEV.WS.SRC" id="ent0004" data-source-line="9"><rect x="324.32" y="139.297" width="185.367" height="55.594" fill="#F1F1F1" style="stroke:#181818;stroke-width:0.5;" rx="2.5" ry="2.5"/><polygon points="492.687,144.297,492.687,158.297,504.687,158.297,504.687,150.297,498.687,144.297,492.687,144.297" fill="#F1F1F1" style="stroke:#181818;stroke-width:0.5;stroke-linejoin:miter;stroke-miterlimit:10;"/><line x1="498.687" y1="144.297" x2="498.687" y2="150.297" style="stroke:#181818;stroke-width:0.5;"/><line x1="504.687" y1="150.297" x2="498.687" y2="150.297" style="stroke:#181818;stroke-width:0.5;"/><text x="334.32" y="165.292" fill="#000" font-size="14" textLength="155.367">GDScript Source Code</text><text x="334.32" y="181.589" fill="#000" font-size="14" textLength="61.947">(scripts/)</text></g><!--entity BLEND--><g class="entity" data-qualified-name="DEV.WS.BLEND" id="ent0005" data-source-line="10"><rect x="569.88" y="139.297" width="134.248" height="55.594" fill="#F1F1F1" style="stroke:#181818;stroke-width:0.5;" rx="2.5" ry="2.5"/><polygon points="687.128,144.297,687.128,158.297,699.128,158.297,699.128,150.297,693.128,144.297,687.128,144.297" fill="#F1F1F1" style="stroke:#181818;stroke-width:0.5;stroke-linejoin:miter;stroke-miterlimit:10;"/><line x1="693.128" y1="144.297" x2="693.128" y2="150.297" style="stroke:#181818;stroke-width:0.5;"/><line x1="699.128" y1="150.297" x2="693.128" y2="150.297" style="stroke:#181818;stroke-width:0.5;"/><text x="579.88" y="165.292" fill="#000" font-size="14" textLength="104.248">Blender Assets</text><text x="579.88" y="181.589" fill="#000" font-size="14" textLength="87.589">(.blend files)</text></g><!--entity GIT--><g class="entity" data-qualified-name="DEV.WS.GIT" id="ent0006" data-source-line="11"><rect x="764.13" y="147.447" width="129.75" height="39.297" fill="#F1F1F1" style="stroke:#181818;stroke-width:0.5;" rx="2.5" ry="2.5"/><polygon points="876.88,152.447,876.88,166.447,888.88,166.447,888.88,158.447,882.88,152.447,876.88,152.447" fill="#F1F1F1" style="stroke:#181818;stroke-width:0.5;stroke-linejoin:miter;stroke-miterlimit:10;"/><line x1="882.88" y1="152.447" x2="882.88" y2="158.447" style="stroke:#181818;stroke-width:0.5;"/><line x1="888.88" y1="158.447" x2="882.88" y2="158.447" style="stroke:#181818;stroke-width:0.5;"/><text x="774.13" y="173.442" fill="#000" font-size="14" textLength="99.75">Git Repository</text></g><!--entity EXE--><g class="entity" data-qualified-name="PE.PM.EXE" id="ent0009" data-source-line="17"><rect x="424.35" y="418.897" width="213.306" height="55.594" fill="#F1F1F1" style="stroke:#181818;stroke-width:0.5;" rx="2.5" ry="2.5"/><polygon points="620.656,423.897,620.656,437.897,632.656,437.897,632.656,429.897,626.656,423.897,620.656,423.897" fill="#F1F1F1" style="stroke:#181818;stroke-width:0.5;stroke-linejoin:miter;stroke-miterlimit:10;"/><line x1="626.656" y1="423.897" x2="626.656" y2="429.897" style="stroke:#181818;stroke-width:0.5;"/><line x1="632.656" y1="429.897" x2="626.656" y2="429.897" style="stroke:#181818;stroke-width:0.5;"/><text x="434.35" y="444.892" fill="#000" font-size="14" textLength="167.125">Click to Live Executable</text><text x="434.35" y="461.189" fill="#000" font-size="14" textLength="183.306">(D3D12 Rendering Driver)</text></g><!--entity RT--><g class="entity" data-qualified-name="PE.PM.RT" id="ent0010" data-source-line="18"><rect x="697.85" y="427.047" width="226.308" height="39.297" fill="#F1F1F1" style="stroke:#181818;stroke-width:0.5;" rx="2.5" ry="2.5"/><polygon points="907.158,432.047,907.158,446.047,919.158,446.047,919.158,438.047,913.158,432.047,907.158,432.047" fill="#F1F1F1" style="stroke:#181818;stroke-width:0.5;stroke-linejoin:miter;stroke-miterlimit:10;"/><line x1="913.158" y1="432.047" x2="913.158" y2="438.047" style="stroke:#181818;stroke-width:0.5;"/><line x1="919.158" y1="438.047" x2="913.158" y2="438.047" style="stroke:#181818;stroke-width:0.5;"/><text x="707.85" y="453.042" fill="#000" font-size="14" textLength="196.308">Godot Runtime (embedded)</text></g><!--entity JOLT--><g class="entity" data-qualified-name="PE.PM.JOLT" id="ent0011" data-source-line="19"><rect x="984.63" y="427.047" width="160.73" height="39.297" fill="#F1F1F1" style="stroke:#181818;stroke-width:0.5;" rx="2.5" ry="2.5"/><polygon points="1128.36,432.047,1128.36,446.047,1140.36,446.047,1140.36,438.047,1134.36,432.047,1128.36,432.047" fill="#F1F1F1" style="stroke:#181818;stroke-width:0.5;stroke-linejoin:miter;stroke-miterlimit:10;"/><line x1="1134.36" y1="432.047" x2="1134.36" y2="438.047" style="stroke:#181818;stroke-width:0.5;"/><line x1="1140.36" y1="438.047" x2="1134.36" y2="438.047" style="stroke:#181818;stroke-width:0.5;"/><text x="994.63" y="453.042" fill="#000" font-size="14" textLength="130.73">Jolt Physics Engine</text></g><!--entity SAVE--><g class="entity" data-qualified-name="PE.PM.SAVE" id="ent0012" data-source-line="20"><rect x="459.39" y="601.527" width="143.224" height="55.594" fill="#F1F1F1" style="stroke:#181818;stroke-width:0.5;" rx="2.5" ry="2.5"/><polygon points="585.614,606.527,585.614,620.527,597.614,620.527,597.614,612.527,591.614,606.527,585.614,606.527" fill="#F1F1F1" style="stroke:#181818;stroke-width:0.5;stroke-linejoin:miter;stroke-miterlimit:10;"/><line x1="591.614" y1="606.527" x2="591.614" y2="612.527" style="stroke:#181818;stroke-width:0.5;"/><line x1="597.614" y1="612.527" x2="591.614" y2="612.527" style="stroke:#181818;stroke-width:0.5;"/><text x="469.39" y="627.522" fill="#000" font-size="14" textLength="113.224">Local Save Data</text><text x="469.39" y="643.819" fill="#000" font-size="14" textLength="55.61">(user://)</text></g><g class="entity" data-qualified-name="GMN16" id="ent0017" data-source-line="29"><path d="M1014.08,124.267 L1014.08,209.931 L1185.919,209.931 L1185.919,134.267 L1175.919,124.267 L1014.08,124.267" style="stroke:#181818;stroke-width:0.5;" fill="#FEFFDD"/><path d="M1175.919,124.267 L1175.919,134.267 L1185.919,134.267 L1175.919,124.267" style="stroke:#181818;stroke-width:1;" fill="#FEFFDD"/><text x="1020.08" y="141.334" fill="#000" font-size="13" textLength="142.651" font-weight="700">Development Stack</text><text x="1020.08" y="156.467" fill="#000" font-size="13" textLength="85.363">- Godot 4.6.1</text><text x="1020.08" y="171.599" fill="#000" font-size="13" textLength="66.612">- GDScript</text><text x="1020.08" y="186.732" fill="#000" font-size="13" textLength="149.119">- Blender for 3D assets</text><text x="1020.08" y="201.865" fill="#000" font-size="13" textLength="150.839">- Git for version control</text></g><g class="entity" data-qualified-name="GMN19" id="ent0020" data-source-line="37"><path d="M1266.21,403.857 L1266.21,489.521 L1465.782,489.521 L1465.782,413.857 L1455.782,403.857 L1266.21,403.857" style="stroke:#181818;stroke-width:0.5;" fill="#FEFFDD"/><path d="M1455.782,403.857 L1455.782,413.857 L1465.782,413.857 L1455.782,403.857" style="stroke:#181818;stroke-width:1;" fill="#FEFFDD"/><text x="1272.21" y="420.924" fill="#000" font-size="13" textLength="106.78" font-weight="700">Runtime Stack</text><text x="1272.21" y="436.057" fill="#000" font-size="13" textLength="163.446">- D3D12 rendering driver</text><text x="1272.21" y="451.189" fill="#000" font-size="13" textLength="178.572">- Jolt Physics for 3D physics</text><text x="1272.21" y="466.322" fill="#000" font-size="13" textLength="172.333">- Local save data in user://</text><text x="1272.21" y="481.455" fill="#000" font-size="13" textLength="130.958">- No server required</text></g><!--link SRC to EXE--><g class="link" data-entity-1="ent0004" data-entity-2="ent0009" id="lnk13" data-source-line="24" data-link-type="dependency"><path d="M423.58,195.397 C430.41,222.197 442.03,264.027 456,298.897 C473.3,342.067 496.389,385.225 512.759,414.175" style="stroke:#181818;stroke-width:1;" fill="none" id="SRC-to-EXE"/><polygon points="515.22,418.527,514.272,408.724,512.759,414.175,507.308,412.661,515.22,418.527" fill="#181818" style="stroke:#181818;stroke-width:1;stroke-linejoin:miter;stroke-miterlimit:10;"/><text x="459.425" y="279.964" fill="#000" font-size="13" textLength="109.205">export via Godot</text><text x="457" y="295.097" fill="#000" font-size="13" textLength="114.055">(Windows preset)</text></g><!--link BLEND to EXE--><g class="link" data-entity-1="ent0005" data-entity-2="ent0009" id="lnk14" data-source-line="25" data-link-type="dependency"><path d="M626.64,195.217 C606.38,248.287 563.484,360.626 543.184,413.786" style="stroke:#181818;stroke-width:1;" fill="none" id="BLEND-to-EXE"/><polygon points="541.4,418.457,548.347,411.476,543.184,413.786,540.874,408.622,541.4,418.457" fill="#181818" style="stroke:#181818;stroke-width:1;stroke-linejoin:miter;stroke-miterlimit:10;"/><text x="597" y="287.464" fill="#000" font-size="13" textLength="132.622">imported as meshes</text></g><!--link EXE to SAVE--><g class="link" data-entity-1="ent0009" data-entity-2="ent0012" id="lnk15" data-source-line="26" data-link-type="dependency"><path d="M531,474.737 C531,508.787 531,561.957 531,596.097" style="stroke:#181818;stroke-width:1;" fill="none" id="EXE-to-SAVE"/><polygon points="531,601.097,535,592.097,531,596.097,527,592.097,531,601.097" fill="#181818" style="stroke:#181818;stroke-width:1;stroke-linejoin:miter;stroke-miterlimit:10;"/><text x="572.92" y="542.594" fill="#000" font-size="13" textLength="66.625">read/write</text><text x="532" y="557.727" fill="#000" font-size="13" textLength="148.465">(save games, settings)</text></g><!--link DEV to GMN16--><g class="link" data-entity-1="ent0001" data-entity-2="ent0017" id="lnk18" data-source-line="29" data-link-type="association"><path d="M962.229,167.097 C964.686,167.097 967.142,167.097 969.599,167.097 C974.512,167.097 979.426,167.097 984.34,167.097 C994.168,167.097 1003.995,167.097 1013.82,167.097" style="stroke:#181818;stroke-width:1;stroke-dasharray:7,7;" fill="none" id="DEV-GMN16"/></g><!--link PE to GMN19--><g class="link" data-entity-1="ent0007" data-entity-2="ent0020" id="lnk21" data-source-line="37" data-link-type="association"><path d="M1214.015,446.687 C1216.479,446.687 1218.944,446.687 1221.408,446.687 C1226.338,446.687 1231.266,446.687 1236.195,446.687 C1246.052,446.687 1255.91,446.687 1265.77,446.687" style="stroke:#181818;stroke-width:1;stroke-dasharray:7,7;" fill="none" id="PE-GMN19"/></g><?plantuml-src RLFBRjim4BphAnOv9MxpQegWoA504gb10oSnh2BfeHT6NDk4QL9ThkmOGO1-HB-mNz8b9GUEsfkud1qEPaPis2BaM5k_Ng1Zk3UuWZ-_ViEbDTKSsCFGB0LX0fDvRDXu1pTUeyt2tBXQaLg0atF9Qo4Yh5YvgSNURS0QJe-sXgJSF0u_7MLP1C1EZakqlauY2hSqv5tytW4L82_kuJa3U8D4WWTFyy0gYaguXpB101IncQYAOUVAQo-4sh0d-7Xm-kw7s_tYQQL8myWs0SReD1BINcAukillllKfyh8YKpEKlg4AuL9K24j8mt3OBfRZozxQXKtCS1u2Sf25WySuWOcn6DgbYs5nc_TVCooQQX-YudKhwckKz9AzRBmQMRKMvhvDesBBfGvpewgPSGYx3yPfl-eU7jtyOzJRl8idh1fMebY4voVvyOVEAEEca9D0EiEAxyL_7HytZir2tiN58sgDkeMF--PUUyimcgs3gOJCJKLh0bxV3VlGeQ-KXLB5EYfM8gm9I6U7cmJExukDJP86xEz_ZkhW3F2fziImD0gIEDdit82Qf9kybwKajbRC8gwWZiGB33CCMRo8WFYE80YLFboHuTI5A6gg1FaUX8_5fR0NqsBv9ynqnk0diSMYRp3ORdh9gfeF1ZBVRxN5ZXuSj-UkT-cmQTD4QdoIYwnOgXOcXObJYIJ4lxFoZidRB7Oj2kZB61L9nIQWRGLjqFGQj4v1fwitENKYwlQOxjjmaWzQmW7Ze4idNTzwyOM4JDX_DePGl-hx2m00?></g></svg>