<svg xmlns="http://www.w3.org/2000/svg" xmlns:xlink="http://www.w3.org/1999/xlink" version="1.1" data-diagram-type="SEQUENCE" style="width:1404px;height:2257px;background:#FFFFFF;" width="1404px" height="2257px" viewBox="0 0 1404 2257" zoomAndPan="magnify" preserveAspectRatio="none" contentStyleType="text/css"><?plantuml 1.2026.7beta6?><defs/><g font-family="sans-serif" lengthAdjust="spacing"><g class="title" data-source-line="1"><text x="413.378" y="27.995" fill="#000" font-size="14" textLength="575.354" font-weight="700">Dynamic View — Core Gameplay Loop (Click → Quota → Phase Transition)</text></g><g><title>Player</title><rect x="31.283" y="123.594" width="8" height="2046.977" fill="#000" fill-opacity="0"/><line x1="34.783" y1="123.594" x2="34.783" y2="2170.57" style="stroke:#181818;stroke-width:0.5;stroke-dasharray:5,5;"/></g><g><title>Player</title><rect x="263.695" y="123.594" width="8" height="2046.977" fill="#000" fill-opacity="0"/><line x1="267.195" y1="123.594" x2="267.195" y2="2170.57" style="stroke:#181818;stroke-width:0.5;stroke-dasharray:5,5;"/></g><g><title>ClickButton</title><rect x="480.731" y="123.594" width="8" height="2046.977" fill="#000" fill-opacity="0"/><line x1="484.231" y1="123.594" x2="484.231" y2="2170.57" style="stroke:#181818;stroke-width:0.5;stroke-dasharray:5,5;"/></g><g><title>GameManager</title><rect x="705.099" y="123.594" width="8" height="2046.977" fill="#000" fill-opacity="0"/><line x1="708.599" y1="123.594" x2="708.599" y2="2170.57" style="stroke:#181818;stroke-width:0.5;stroke-dasharray:5,5;"/></g><g><title>QuotaManager</title><rect x="947.179" y="123.594" width="8" height="2046.977" fill="#000" fill-opacity="0"/><line x1="950.679" y1="123.594" x2="950.679" y2="2170.57" style="stroke:#181818;stroke-width:0.5;stroke-dasharray:5,5;"/></g><g><title>TVDisplay</title><rect x="1179.608" y="123.594" width="8" height="2046.977" fill="#000" fill-opacity="0"/><line x1="1183.108" y1="123.594" x2="1183.108" y2="2170.57" style="stroke:#181818;stroke-width:0.5;stroke-dasharray:5,5;"/></g><g><title>DeathRoom</title><rect x="1279.891" y="123.594" width="8" height="2046.977" fill="#000" fill-opacity="0"/><line x1="1283.391" y1="123.594" x2="1283.391" y2="2170.57" style="stroke:#181818;stroke-width:0.5;stroke-dasharray:5,5;"/></g><text x="10" y="120.292" fill="#000" font-size="14" textLength="43.565">Player</text><ellipse cx="34.783" cy="55.797" rx="8" ry="8" fill="#E2E2F0" style="stroke:#181818;stroke-width:0.5;"/><path d="M34.783,63.797 L34.783,90.797 M21.783,71.797 L47.783,71.797 M34.783,90.797 L21.783,105.797 M34.783,90.797 L47.783,105.797" style="stroke:#181818;stroke-width:0.5;" fill="none"/><rect x="192.66" y="76" width="149.071" height="46.594" fill="#E2E2F0" style="stroke:#181818;stroke-width:0.5;" rx="2.5" ry="2.5"/><text x="245.413" y="95.995" fill="#000" font-size="14" textLength="43.565">Player</text><text x="199.66" y="112.292" fill="#000" font-size="14" textLength="135.071">(CharacterBody3D)</text><rect x="437.104" y="76" width="94.254" height="46.594" fill="#E2E2F0" style="stroke:#181818;stroke-width:0.5;" rx="2.5" ry="2.5"/><text x="444.104" y="95.995" fill="#000" font-size="14" textLength="80.254">ClickButton</text><text x="450.657" y="112.292" fill="#000" font-size="14" textLength="67.149">(Node3D)</text><rect x="650.077" y="76" width="117.045" height="46.594" fill="#E2E2F0" style="stroke:#181818;stroke-width:0.5;" rx="2.5" ry="2.5"/><text x="657.077" y="95.995" fill="#000" font-size="14" textLength="103.045">GameManager</text><text x="671.924" y="112.292" fill="#000" font-size="14" textLength="73.35">(Autoload)</text><rect x="891.733" y="76" width="117.893" height="46.594" fill="#E2E2F0" style="stroke:#181818;stroke-width:0.5;" rx="2.5" ry="2.5"/><text x="898.733" y="95.995" fill="#000" font-size="14" textLength="103.893">QuotaManager</text><text x="914.004" y="112.292" fill="#000" font-size="14" textLength="73.35">(Autoload)</text><rect x="1141.242" y="92.297" width="83.733" height="30.297" fill="#E2E2F0" style="stroke:#181818;stroke-width:0.5;" rx="2.5" ry="2.5"/><text x="1148.242" y="112.292" fill="#000" font-size="14" textLength="69.733">TVDisplay</text><rect x="1234.975" y="92.297" width="96.831" height="30.297" fill="#E2E2F0" style="stroke:#181818;stroke-width:0.5;" rx="2.5" ry="2.5"/><text x="1241.975" y="112.292" fill="#000" font-size="14" textLength="82.831">DeathRoom</text><text x="10" y="2183.565" fill="#000" font-size="14" textLength="43.565">Player</text><ellipse cx="34.783" cy="2195.367" rx="8" ry="8" fill="#E2E2F0" style="stroke:#181818;stroke-width:0.5;"/><path d="M34.783,2203.367 L34.783,2230.367 M21.783,2211.367 L47.783,2211.367 M34.783,2230.367 L21.783,2245.367 M34.783,2230.367 L47.783,2245.367" style="stroke:#181818;stroke-width:0.5;" fill="none"/><rect x="192.66" y="2170.57" width="149.071" height="46.594" fill="#E2E2F0" style="stroke:#181818;stroke-width:0.5;" rx="2.5" ry="2.5"/><text x="245.413" y="2190.565" fill="#000" font-size="14" textLength="43.565">Player</text><text x="199.66" y="2206.862" fill="#000" font-size="14" textLength="135.071">(CharacterBody3D)</text><rect x="437.104" y="2170.57" width="94.254" height="46.594" fill="#E2E2F0" style="stroke:#181818;stroke-width:0.5;" rx="2.5" ry="2.5"/><text x="444.104" y="2190.565" fill="#000" font-size="14" textLength="80.254">ClickButton</text><text x="450.657" y="2206.862" fill="#000" font-size="14" textLength="67.149">(Node3D)</text><rect x="650.077" y="2170.57" width="117.045" height="46.594" fill="#E2E2F0" style="stroke:#181818;stroke-width:0.5;" rx="2.5" ry="2.5"/><text x="657.077" y="2190.565" fill="#000" font-size="14" textLength="103.045">GameManager</text><text x="671.924" y="2206.862" fill="#000" font-size="14" textLength="73.35">(Autoload)</text><rect x="891.733" y="2170.57" width="117.893" height="46.594" fill="#E2E2F0" style="stroke:#181818;stroke-width:0.5;" rx="2.5" ry="2.5"/><text x="898.733" y="2190.565" fill="#000" font-size="14" textLength="103.893">QuotaManager</text><text x="914.004" y="2206.862" fill="#000" font-size="14" textLength="73.35">(Autoload)</text><rect x="1141.242" y="2170.57" width="83.733" height="30.297" fill="#E2E2F0" style="stroke:#181818;stroke-width:0.5;" rx="2.5" ry="2.5"/><text x="1148.242" y="2190.565" fill="#000" font-size="14" textLength="69.733">TVDisplay</text><rect x="1234.975" y="2170.57" width="96.831" height="30.297" fill="#E2E2F0" style="stroke:#181818;stroke-width:0.5;" rx="2.5" ry="2.5"/><text x="1241.975" y="2190.565" fill="#000" font-size="14" textLength="82.831">DeathRoom</text><rect x="10" y="152.16" width="1383.109" height="3" fill="#EEE" style="stroke:#EEE;stroke-width:1;"/><line x1="10" y1="152.16" x2="1393.109" y2="152.16" style="stroke:#000;stroke-width:1;"/><line x1="10" y1="155.16" x2="1393.109" y2="155.16" style="stroke:#000;stroke-width:1;"/><rect x="624.514" y="141.594" width="154.08" height="23.133" fill="#EEE" style="stroke:#000;stroke-width:2;"/><text x="630.514" y="157.661" fill="#000" font-size="13" textLength="135.554" font-weight="700">Initial State (IDLE)</text><line x1="950.679" y1="195.859" x2="992.679" y2="195.859" style="stroke:#181818;stroke-width:1;"/><line x1="992.679" y1="195.859" x2="992.679" y2="208.859" style="stroke:#181818;stroke-width:1;"/><line x1="951.679" y1="208.859" x2="992.679" y2="208.859" style="stroke:#181818;stroke-width:1;"/><polygon points="961.679,204.859,951.679,208.859,961.679,212.859,957.679,208.859" fill="#181818" style="stroke:#181818;stroke-width:1;stroke-linejoin:miter;stroke-miterlimit:10;"/><text x="957.679" y="190.793" fill="#000" font-size="13" textLength="135.3">current_state = IDLE</text><polygon points="719.599,233.992,709.599,237.992,719.599,241.992,715.599,237.992" fill="#181818" style="stroke:#181818;stroke-width:1;stroke-linejoin:miter;stroke-miterlimit:10;"/><line x1="713.599" y1="237.992" x2="949.679" y2="237.992" style="stroke:#181818;stroke-width:1;"/><text x="749.751" y="232.926" fill="#000" font-size="13" textLength="159.777">connect(score_changed)</text><path d="M955.679,221.859 L955.679,261.859 L1118.679,261.859 L1118.679,231.859 L1108.679,221.859 L955.679,221.859" style="stroke:#181818;stroke-width:0.5;" fill="#FEFFDD"/><path d="M1108.679,221.859 L1108.679,231.859 L1118.679,231.859 L1108.679,221.859" style="stroke:#181818;stroke-width:0.5;" fill="#FEFFDD"/><text x="961.679" y="238.926" fill="#000" font-size="13" textLength="142.708">QuotaManager listens</text><text x="961.679" y="254.059" fill="#000" font-size="13" textLength="80.59">for first click</text><rect x="10" y="287.691" width="1383.109" height="3" fill="#EEE" style="stroke:#EEE;stroke-width:1;"/><line x1="10" y1="287.691" x2="1393.109" y2="287.691" style="stroke:#000;stroke-width:1;"/><line x1="10" y1="290.691" x2="1393.109" y2="290.691" style="stroke:#000;stroke-width:1;"/><rect x="618.376" y="277.125" width="166.356" height="23.133" fill="#EEE" style="stroke:#000;stroke-width:2;"/><text x="624.376" y="293.192" fill="#000" font-size="13" textLength="147.831" font-weight="700">Player Clicks Button</text><polygon points="255.195,327.391,265.195,331.391,255.195,335.391,259.195,331.391" fill="#181818" style="stroke:#181818;stroke-width:1;stroke-linejoin:miter;stroke-miterlimit:10;"/><line x1="34.783" y1="331.391" x2="261.195" y2="331.391" style="stroke:#181818;stroke-width:1;"/><text x="46.783" y="326.325" fill="#000" font-size="13" textLength="208.413">WASD movement + mouse look</text><line x1="267.195" y1="360.523" x2="309.195" y2="360.523" style="stroke:#181818;stroke-width:1;"/><line x1="309.195" y1="360.523" x2="309.195" y2="373.523" style="stroke:#181818;stroke-width:1;"/><line x1="268.195" y1="373.523" x2="309.195" y2="373.523" style="stroke:#181818;stroke-width:1;"/><polygon points="278.195,369.523,268.195,373.523,278.195,377.523,274.195,373.523" fill="#181818" style="stroke:#181818;stroke-width:1;stroke-linejoin:miter;stroke-miterlimit:10;"/><text x="274.195" y="355.458" fill="#000" font-size="13" textLength="203.036">RayCast3D detects ClickButton</text><polygon points="472.231,398.656,482.231,402.656,472.231,406.656,476.231,402.656" fill="#181818" style="stroke:#181818;stroke-width:1;stroke-linejoin:miter;stroke-miterlimit:10;"/><line x1="267.195" y1="402.656" x2="478.231" y2="402.656" style="stroke:#181818;stroke-width:1;"/><text x="318.803" y="397.59" fill="#000" font-size="13" textLength="113.82">aim_target.click()</text><line x1="484.231" y1="431.789" x2="526.231" y2="431.789" style="stroke:#181818;stroke-width:1;"/><line x1="526.231" y1="431.789" x2="526.231" y2="444.789" style="stroke:#181818;stroke-width:1;"/><line x1="485.231" y1="444.789" x2="526.231" y2="444.789" style="stroke:#181818;stroke-width:1;"/><polygon points="495.231,440.789,485.231,444.789,495.231,448.789,491.231,444.789" fill="#181818" style="stroke:#181818;stroke-width:1;stroke-linejoin:miter;stroke-miterlimit:10;"/><text x="491.231" y="426.723" fill="#000" font-size="13" textLength="170.765">emit button_clicked signal</text><line x1="484.231" y1="473.922" x2="526.231" y2="473.922" style="stroke:#181818;stroke-width:1;"/><line x1="526.231" y1="473.922" x2="526.231" y2="486.922" style="stroke:#181818;stroke-width:1;"/><line x1="485.231" y1="486.922" x2="526.231" y2="486.922" style="stroke:#181818;stroke-width:1;"/><polygon points="495.231,482.922,485.231,486.922,495.231,490.922,491.231,486.922" fill="#181818" style="stroke:#181818;stroke-width:1;stroke-linejoin:miter;stroke-miterlimit:10;"/><text x="491.231" y="468.856" fill="#000" font-size="13" textLength="210.368">play "Button_Clicked" animation</text><polygon points="696.599,512.055,706.599,516.055,696.599,520.055,700.599,516.055" fill="#181818" style="stroke:#181818;stroke-width:1;stroke-linejoin:miter;stroke-miterlimit:10;"/><line x1="484.231" y1="516.055" x2="702.599" y2="516.055" style="stroke:#181818;stroke-width:1;"/><text x="520.843" y="510.989" fill="#000" font-size="13" textLength="151.144">click(total_click_power)</text><line x1="708.599" y1="545.188" x2="750.599" y2="545.188" style="stroke:#181818;stroke-width:1;"/><line x1="750.599" y1="545.188" x2="750.599" y2="558.188" style="stroke:#181818;stroke-width:1;"/><line x1="709.599" y1="558.188" x2="750.599" y2="558.188" style="stroke:#181818;stroke-width:1;"/><polygon points="719.599,554.188,709.599,558.188,719.599,562.188,715.599,558.188" fill="#181818" style="stroke:#181818;stroke-width:1;stroke-linejoin:miter;stroke-miterlimit:10;"/><text x="715.599" y="540.122" fill="#000" font-size="13" textLength="177.22">score += total_click_power</text><line x1="708.599" y1="587.32" x2="750.599" y2="587.32" style="stroke:#181818;stroke-width:1;"/><line x1="750.599" y1="587.32" x2="750.599" y2="600.32" style="stroke:#181818;stroke-width:1;"/><line x1="709.599" y1="600.32" x2="750.599" y2="600.32" style="stroke:#181818;stroke-width:1;"/><polygon points="719.599,596.32,709.599,600.32,719.599,604.32,715.599,600.32" fill="#181818" style="stroke:#181818;stroke-width:1;stroke-linejoin:miter;stroke-miterlimit:10;"/><text x="715.599" y="582.254" fill="#000" font-size="13" textLength="176.674">emit score_changed(score)</text><rect x="10" y="628.887" width="1383.109" height="3" fill="#EEE" style="stroke:#EEE;stroke-width:1;"/><line x1="10" y1="628.887" x2="1393.109" y2="628.887" style="stroke:#000;stroke-width:1;"/><line x1="10" y1="631.887" x2="1393.109" y2="631.887" style="stroke:#000;stroke-width:1;"/><rect x="611.152" y="618.32" width="180.804" height="23.133" fill="#EEE" style="stroke:#000;stroke-width:2;"/><text x="617.152" y="634.387" fill="#000" font-size="13" textLength="162.278" font-weight="700">QuotaManager Reacts</text><polygon points="938.679,668.586,948.679,672.586,938.679,676.586,942.679,672.586" fill="#181818" style="stroke:#181818;stroke-width:1;stroke-linejoin:miter;stroke-miterlimit:10;"/><line x1="708.599" y1="672.586" x2="944.679" y2="672.586" style="stroke:#181818;stroke-width:1;"/><text x="726.772" y="667.52" fill="#000" font-size="13" textLength="205.734">_on_score_changed(new_score)</text><path d="M934.679,684.586 L999.122,684.586 L999.122,691.719 L989.122,701.719 L934.679,701.719 L934.679,684.586" style="stroke:#000;stroke-width:1.5;" fill="#EEE"/><rect x="934.679" y="684.586" width="362.316" height="322.063" fill="none" style="stroke:#000;stroke-width:1.5;"/><text x="949.679" y="697.653" fill="#000" font-size="13" textLength="19.443" font-weight="700">alt</text><text x="1014.122" y="696.796" fill="#000" font-size="11" textLength="266.874" font-weight="700">[current_state == IDLE and new_score > 0]</text><line x1="950.679" y1="732.852" x2="992.679" y2="732.852" style="stroke:#181818;stroke-width:1;"/><line x1="992.679" y1="732.852" x2="992.679" y2="745.852" style="stroke:#181818;stroke-width:1;"/><line x1="951.679" y1="745.852" x2="992.679" y2="745.852" style="stroke:#181818;stroke-width:1;"/><polygon points="961.679,741.852,951.679,745.852,961.679,749.852,957.679,745.852" fill="#181818" style="stroke:#181818;stroke-width:1;stroke-linejoin:miter;stroke-miterlimit:10;"/><text x="957.679" y="727.786" fill="#000" font-size="13" textLength="75.245">_start_run()</text><line x1="950.679" y1="774.984" x2="992.679" y2="774.984" style="stroke:#181818;stroke-width:1;"/><line x1="992.679" y1="774.984" x2="992.679" y2="787.984" style="stroke:#181818;stroke-width:1;"/><line x1="951.679" y1="787.984" x2="992.679" y2="787.984" style="stroke:#181818;stroke-width:1;"/><polygon points="961.679,783.984,951.679,787.984,961.679,791.984,957.679,787.984" fill="#181818" style="stroke:#181818;stroke-width:1;stroke-linejoin:miter;stroke-miterlimit:10;"/><text x="957.679" y="769.918" fill="#000" font-size="13" textLength="167.629">current_state = RUNNING</text><line x1="950.679" y1="817.117" x2="992.679" y2="817.117" style="stroke:#181818;stroke-width:1;"/><line x1="992.679" y1="817.117" x2="992.679" y2="830.117" style="stroke:#181818;stroke-width:1;"/><line x1="951.679" y1="830.117" x2="992.679" y2="830.117" style="stroke:#181818;stroke-width:1;"/><polygon points="961.679,826.117,951.679,830.117,961.679,834.117,957.679,830.117" fill="#181818" style="stroke:#181818;stroke-width:1;stroke-linejoin:miter;stroke-miterlimit:10;"/><text x="957.679" y="812.051" fill="#000" font-size="13" textLength="173.532">load quota[0] = [30s, 300]</text><line x1="950.679" y1="859.25" x2="992.679" y2="859.25" style="stroke:#181818;stroke-width:1;"/><line x1="992.679" y1="859.25" x2="992.679" y2="872.25" style="stroke:#181818;stroke-width:1;"/><line x1="951.679" y1="872.25" x2="992.679" y2="872.25" style="stroke:#181818;stroke-width:1;"/><polygon points="961.679,868.25,951.679,872.25,961.679,876.25,957.679,872.25" fill="#181818" style="stroke:#181818;stroke-width:1;stroke-linejoin:miter;stroke-miterlimit:10;"/><text x="957.679" y="854.184" fill="#000" font-size="13" textLength="105.257">time_left = 30.0</text><line x1="950.679" y1="901.383" x2="992.679" y2="901.383" style="stroke:#181818;stroke-width:1;"/><line x1="992.679" y1="901.383" x2="992.679" y2="914.383" style="stroke:#181818;stroke-width:1;"/><line x1="951.679" y1="914.383" x2="992.679" y2="914.383" style="stroke:#181818;stroke-width:1;"/><polygon points="961.679,910.383,951.679,914.383,961.679,918.383,957.679,914.383" fill="#181818" style="stroke:#181818;stroke-width:1;stroke-linejoin:miter;stroke-miterlimit:10;"/><text x="957.679" y="896.317" fill="#000" font-size="13" textLength="181.645">current_quota_target = 300</text><line x1="950.679" y1="943.516" x2="992.679" y2="943.516" style="stroke:#181818;stroke-width:1;"/><line x1="992.679" y1="943.516" x2="992.679" y2="956.516" style="stroke:#181818;stroke-width:1;"/><line x1="951.679" y1="956.516" x2="992.679" y2="956.516" style="stroke:#181818;stroke-width:1;"/><polygon points="961.679,952.516,951.679,956.516,961.679,960.516,957.679,956.516" fill="#181818" style="stroke:#181818;stroke-width:1;stroke-linejoin:miter;stroke-miterlimit:10;"/><text x="957.679" y="938.45" fill="#000" font-size="13" textLength="118.498">emit run_started()</text><line x1="950.679" y1="985.648" x2="992.679" y2="985.648" style="stroke:#181818;stroke-width:1;"/><line x1="992.679" y1="985.648" x2="992.679" y2="998.648" style="stroke:#181818;stroke-width:1;"/><line x1="951.679" y1="998.648" x2="992.679" y2="998.648" style="stroke:#181818;stroke-width:1;"/><polygon points="961.679,994.648,951.679,998.648,961.679,1002.648,957.679,998.648" fill="#181818" style="stroke:#181818;stroke-width:1;stroke-linejoin:miter;stroke-miterlimit:10;"/><text x="957.679" y="980.583" fill="#000" font-size="13" textLength="166.524">emit quota_updated(300)</text><rect x="10" y="1041.215" width="1383.109" height="3" fill="#EEE" style="stroke:#EEE;stroke-width:1;"/><line x1="10" y1="1041.215" x2="1393.109" y2="1041.215" style="stroke:#000;stroke-width:1;"/><line x1="10" y1="1044.215" x2="1393.109" y2="1044.215" style="stroke:#000;stroke-width:1;"/><rect x="564.713" y="1030.648" width="273.683" height="23.133" fill="#EEE" style="stroke:#000;stroke-width:2;"/><text x="570.713" y="1046.715" fill="#000" font-size="13" textLength="255.157" font-weight="700">Running Phase (Timer Countdown)</text><path d="M934.679,1067.781 L1011.303,1067.781 L1011.303,1074.914 L1001.303,1084.914 L934.679,1084.914 L934.679,1067.781" style="stroke:#000;stroke-width:1.5;" fill="#EEE"/><rect x="934.679" y="1067.781" width="264.429" height="182.664" fill="none" style="stroke:#000;stroke-width:1.5;"/><text x="949.679" y="1080.848" fill="#000" font-size="13" textLength="31.624" font-weight="700">loop</text><text x="1026.303" y="1079.992" fill="#000" font-size="11" textLength="85.126" font-weight="700">[every frame]</text><line x1="950.679" y1="1116.047" x2="992.679" y2="1116.047" style="stroke:#181818;stroke-width:1;"/><line x1="992.679" y1="1116.047" x2="992.679" y2="1129.047" style="stroke:#181818;stroke-width:1;"/><line x1="951.679" y1="1129.047" x2="992.679" y2="1129.047" style="stroke:#181818;stroke-width:1;"/><polygon points="961.679,1125.047,951.679,1129.047,961.679,1133.047,957.679,1129.047" fill="#181818" style="stroke:#181818;stroke-width:1;stroke-linejoin:miter;stroke-miterlimit:10;"/><text x="957.679" y="1110.981" fill="#000" font-size="13" textLength="99.811">_process(delta)</text><line x1="950.679" y1="1158.18" x2="992.679" y2="1158.18" style="stroke:#181818;stroke-width:1;"/><line x1="992.679" y1="1158.18" x2="992.679" y2="1171.18" style="stroke:#181818;stroke-width:1;"/><line x1="951.679" y1="1171.18" x2="992.679" y2="1171.18" style="stroke:#181818;stroke-width:1;"/><polygon points="961.679,1167.18,951.679,1171.18,961.679,1175.18,957.679,1171.18" fill="#181818" style="stroke:#181818;stroke-width:1;stroke-linejoin:miter;stroke-miterlimit:10;"/><text x="957.679" y="1153.114" fill="#000" font-size="13" textLength="113.928">time_left -= delta</text><line x1="950.679" y1="1200.313" x2="992.679" y2="1200.313" style="stroke:#181818;stroke-width:1;"/><line x1="992.679" y1="1200.313" x2="992.679" y2="1213.313" style="stroke:#181818;stroke-width:1;"/><line x1="951.679" y1="1213.313" x2="992.679" y2="1213.313" style="stroke:#181818;stroke-width:1;"/><polygon points="961.679,1209.313,951.679,1213.313,961.679,1217.313,957.679,1213.313" fill="#181818" style="stroke:#181818;stroke-width:1;stroke-linejoin:miter;stroke-miterlimit:10;"/><text x="957.679" y="1195.247" fill="#000" font-size="13" textLength="196.073">emit timer_updated(time_left)</text><polygon points="1171.108,1238.445,1181.108,1242.445,1171.108,1246.445,1175.108,1242.445" fill="#181818" style="stroke:#181818;stroke-width:1;stroke-linejoin:miter;stroke-miterlimit:10;"/><line x1="950.679" y1="1242.445" x2="1177.108" y2="1242.445" style="stroke:#181818;stroke-width:1;"/><text x="1018.845" y="1237.379" fill="#000" font-size="13" textLength="96.097">update display</text><rect x="10" y="1285.012" width="1383.109" height="3" fill="#EEE" style="stroke:#EEE;stroke-width:1;"/><line x1="10" y1="1285.012" x2="1393.109" y2="1285.012" style="stroke:#000;stroke-width:1;"/><line x1="10" y1="1288.012" x2="1393.109" y2="1288.012" style="stroke:#000;stroke-width:1;"/><rect x="598.895" y="1274.445" width="205.318" height="23.133" fill="#EEE" style="stroke:#000;stroke-width:2;"/><text x="604.895" y="1290.512" fill="#000" font-size="13" textLength="186.792" font-weight="700">Player Continues Clicking</text><polygon points="472.231,1324.711,482.231,1328.711,472.231,1332.711,476.231,1328.711" fill="#181818" style="stroke:#181818;stroke-width:1;stroke-linejoin:miter;stroke-miterlimit:10;"/><line x1="34.783" y1="1328.711" x2="478.231" y2="1328.711" style="stroke:#181818;stroke-width:1;"/><text x="239.912" y="1323.645" fill="#000" font-size="13" textLength="39.19">click()</text><polygon points="696.599,1353.844,706.599,1357.844,696.599,1361.844,700.599,1357.844" fill="#181818" style="stroke:#181818;stroke-width:1;stroke-linejoin:miter;stroke-miterlimit:10;"/><line x1="484.231" y1="1357.844" x2="702.599" y2="1357.844" style="stroke:#181818;stroke-width:1;"/><text x="558.25" y="1352.778" fill="#000" font-size="13" textLength="76.331">add_score()</text><line x1="708.599" y1="1386.977" x2="750.599" y2="1386.977" style="stroke:#181818;stroke-width:1;"/><line x1="750.599" y1="1386.977" x2="750.599" y2="1399.977" style="stroke:#181818;stroke-width:1;"/><line x1="709.599" y1="1399.977" x2="750.599" y2="1399.977" style="stroke:#181818;stroke-width:1;"/><polygon points="719.599,1395.977,709.599,1399.977,719.599,1403.977,715.599,1399.977" fill="#181818" style="stroke:#181818;stroke-width:1;stroke-linejoin:miter;stroke-miterlimit:10;"/><text x="715.599" y="1381.911" fill="#000" font-size="13" textLength="177.22">score += total_click_power</text><polygon points="938.679,1425.109,948.679,1429.109,938.679,1433.109,942.679,1429.109" fill="#181818" style="stroke:#181818;stroke-width:1;stroke-linejoin:miter;stroke-miterlimit:10;"/><line x1="708.599" y1="1429.109" x2="944.679" y2="1429.109" style="stroke:#181818;stroke-width:1;"/><text x="759.44" y="1424.043" fill="#000" font-size="13" textLength="140.397">score_changed signal</text><path d="M955.679,1412.977 L955.679,1452.977 L1072.679,1452.977 L1072.679,1422.977 L1062.679,1412.977 L955.679,1412.977" style="stroke:#181818;stroke-width:0.5;" fill="#FEFFDD"/><path d="M1062.679,1412.977 L1062.679,1422.977 L1072.679,1422.977 L1062.679,1412.977" style="stroke:#181818;stroke-width:0.5;" fill="#FEFFDD"/><text x="961.679" y="1430.043" fill="#000" font-size="13" textLength="96.472">QuotaManager</text><text x="961.679" y="1445.176" fill="#000" font-size="13" textLength="96.986">monitors score</text><rect x="10" y="1478.809" width="1383.109" height="3" fill="#EEE" style="stroke:#EEE;stroke-width:1;"/><line x1="10" y1="1478.809" x2="1393.109" y2="1478.809" style="stroke:#000;stroke-width:1;"/><line x1="10" y1="1481.809" x2="1393.109" y2="1481.809" style="stroke:#000;stroke-width:1;"/><rect x="645.189" y="1468.242" width="112.731" height="23.133" fill="#EEE" style="stroke:#000;stroke-width:2;"/><text x="651.189" y="1484.309" fill="#000" font-size="13" textLength="94.206" font-weight="700">Time Expires</text><line x1="950.679" y1="1522.508" x2="992.679" y2="1522.508" style="stroke:#181818;stroke-width:1;"/><line x1="992.679" y1="1522.508" x2="992.679" y2="1535.508" style="stroke:#181818;stroke-width:1;"/><line x1="951.679" y1="1535.508" x2="992.679" y2="1535.508" style="stroke:#181818;stroke-width:1;"/><polygon points="961.679,1531.508,951.679,1535.508,961.679,1539.508,957.679,1535.508" fill="#181818" style="stroke:#181818;stroke-width:1;stroke-linejoin:miter;stroke-miterlimit:10;"/><text x="957.679" y="1517.442" fill="#000" font-size="13" textLength="107.878">time_left &lt;= 0.0</text><line x1="950.679" y1="1564.641" x2="992.679" y2="1564.641" style="stroke:#181818;stroke-width:1;"/><line x1="992.679" y1="1564.641" x2="992.679" y2="1577.641" style="stroke:#181818;stroke-width:1;"/><line x1="951.679" y1="1577.641" x2="992.679" y2="1577.641" style="stroke:#181818;stroke-width:1;"/><polygon points="961.679,1573.641,951.679,1577.641,961.679,1581.641,957.679,1577.641" fill="#181818" style="stroke:#181818;stroke-width:1;stroke-linejoin:miter;stroke-miterlimit:10;"/><text x="957.679" y="1559.575" fill="#000" font-size="13" textLength="117.222">_evaluate_quota()</text><polygon points="719.599,1602.773,709.599,1606.773,719.599,1610.773,715.599,1606.773" fill="#181818" style="stroke:#181818;stroke-width:1;stroke-linejoin:miter;stroke-miterlimit:10;"/><line x1="713.599" y1="1606.773" x2="949.679" y2="1606.773" style="stroke:#181818;stroke-width:1;"/><text x="741.026" y="1601.708" fill="#000" font-size="13" textLength="177.227">check GameManager.score</text><path d="M692.599,1618.773 L757.042,1618.773 L757.042,1625.906 L747.042,1635.906 L692.599,1635.906 L692.599,1618.773" style="stroke:#000;stroke-width:1.5;" fill="#EEE"/><rect x="692.599" y="1618.773" width="691.51" height="527.797" fill="none" style="stroke:#000;stroke-width:1.5;"/><text x="707.599" y="1631.84" fill="#000" font-size="13" textLength="19.443" font-weight="700">alt</text><text x="772.042" y="1630.984" fill="#000" font-size="11" textLength="271.294" font-weight="700">[score >= current_quota_target (SUCCESS)]</text><line x1="692.599" y1="1862.703" x2="1384.109" y2="1862.703" style="stroke:#000;stroke-width:1;stroke-dasharray:2,2;"/><text x="697.599" y="1874.914" fill="#000" font-size="11" textLength="257.764" font-weight="700">[score &lt; current_quota_target (FAILURE)]</text><line x1="950.679" y1="1667.039" x2="992.679" y2="1667.039" style="stroke:#181818;stroke-width:1;"/><line x1="992.679" y1="1667.039" x2="992.679" y2="1680.039" style="stroke:#181818;stroke-width:1;"/><line x1="951.679" y1="1680.039" x2="992.679" y2="1680.039" style="stroke:#181818;stroke-width:1;"/><polygon points="961.679,1676.039,951.679,1680.039,961.679,1684.039,957.679,1680.039" fill="#181818" style="stroke:#181818;stroke-width:1;stroke-linejoin:miter;stroke-miterlimit:10;"/><text x="957.679" y="1661.973" fill="#000" font-size="13" textLength="201.132">emit run_ended(success=true)</text><polygon points="719.599,1705.172,709.599,1709.172,719.599,1713.172,715.599,1709.172" fill="#181818" style="stroke:#181818;stroke-width:1;stroke-linejoin:miter;stroke-miterlimit:10;"/><line x1="713.599" y1="1709.172" x2="949.679" y2="1709.172" style="stroke:#181818;stroke-width:1;"/><text x="774.573" y="1704.106" fill="#000" font-size="13" textLength="110.132">score = 0 (reset)</text><line x1="950.679" y1="1738.305" x2="992.679" y2="1738.305" style="stroke:#181818;stroke-width:1;"/><line x1="992.679" y1="1738.305" x2="992.679" y2="1751.305" style="stroke:#181818;stroke-width:1;"/><line x1="951.679" y1="1751.305" x2="992.679" y2="1751.305" style="stroke:#181818;stroke-width:1;"/><polygon points="961.679,1747.305,951.679,1751.305,961.679,1755.305,957.679,1751.305" fill="#181818" style="stroke:#181818;stroke-width:1;stroke-linejoin:miter;stroke-miterlimit:10;"/><text x="957.679" y="1733.239" fill="#000" font-size="13" textLength="155.499">current_quota_index++</text><line x1="950.679" y1="1780.438" x2="992.679" y2="1780.438" style="stroke:#181818;stroke-width:1;"/><line x1="992.679" y1="1780.438" x2="992.679" y2="1793.438" style="stroke:#181818;stroke-width:1;"/><line x1="951.679" y1="1793.438" x2="992.679" y2="1793.438" style="stroke:#181818;stroke-width:1;"/><polygon points="961.679,1789.438,951.679,1793.438,961.679,1797.438,957.679,1793.438" fill="#181818" style="stroke:#181818;stroke-width:1;stroke-linejoin:miter;stroke-miterlimit:10;"/><text x="957.679" y="1775.372" fill="#000" font-size="13" textLength="135.3">current_state = IDLE</text><line x1="950.679" y1="1822.57" x2="992.679" y2="1822.57" style="stroke:#181818;stroke-width:1;"/><line x1="992.679" y1="1822.57" x2="992.679" y2="1835.57" style="stroke:#181818;stroke-width:1;"/><line x1="951.679" y1="1835.57" x2="992.679" y2="1835.57" style="stroke:#181818;stroke-width:1;"/><polygon points="961.679,1831.57,951.679,1835.57,961.679,1839.57,957.679,1835.57" fill="#181818" style="stroke:#181818;stroke-width:1;stroke-linejoin:miter;stroke-miterlimit:10;"/><text x="957.679" y="1817.504" fill="#000" font-size="13" textLength="218.429">emit preparation_phase_started()</text><path d="M1188.108,1806.438 L1188.108,1846.438 L1321.108,1846.438 L1321.108,1816.438 L1311.108,1806.438 L1188.108,1806.438" style="stroke:#181818;stroke-width:0.5;" fill="#FEFFDD"/><path d="M1311.108,1806.438 L1311.108,1816.438 L1321.108,1816.438 L1311.108,1806.438" style="stroke:#181818;stroke-width:0.5;" fill="#FEFFDD"/><text x="1194.108" y="1823.504" fill="#000" font-size="13" textLength="96.256">Player can buy</text><text x="1194.108" y="1838.637" fill="#000" font-size="13" textLength="112.411">upgrades in shop</text><line x1="950.679" y1="1903.641" x2="992.679" y2="1903.641" style="stroke:#181818;stroke-width:1;"/><line x1="992.679" y1="1903.641" x2="992.679" y2="1916.641" style="stroke:#181818;stroke-width:1;"/><line x1="951.679" y1="1916.641" x2="992.679" y2="1916.641" style="stroke:#181818;stroke-width:1;"/><polygon points="961.679,1912.641,951.679,1916.641,961.679,1920.641,957.679,1916.641" fill="#181818" style="stroke:#181818;stroke-width:1;stroke-linejoin:miter;stroke-miterlimit:10;"/><text x="957.679" y="1898.575" fill="#000" font-size="13" textLength="205.378">emit run_ended(success=false)</text><line x1="950.679" y1="1945.773" x2="992.679" y2="1945.773" style="stroke:#181818;stroke-width:1;"/><line x1="992.679" y1="1945.773" x2="992.679" y2="1958.773" style="stroke:#181818;stroke-width:1;"/><line x1="951.679" y1="1958.773" x2="992.679" y2="1958.773" style="stroke:#181818;stroke-width:1;"/><polygon points="961.679,1954.773,951.679,1958.773,961.679,1962.773,957.679,1958.773" fill="#181818" style="stroke:#181818;stroke-width:1;stroke-linejoin:miter;stroke-miterlimit:10;"/><text x="957.679" y="1940.708" fill="#000" font-size="13" textLength="187.269">current_state = GAME_OVER</text><line x1="950.679" y1="1987.906" x2="992.679" y2="1987.906" style="stroke:#181818;stroke-width:1;"/><line x1="992.679" y1="1987.906" x2="992.679" y2="2000.906" style="stroke:#181818;stroke-width:1;"/><line x1="951.679" y1="2000.906" x2="992.679" y2="2000.906" style="stroke:#181818;stroke-width:1;"/><polygon points="961.679,1996.906,951.679,2000.906,961.679,2004.906,957.679,2000.906" fill="#181818" style="stroke:#181818;stroke-width:1;stroke-linejoin:miter;stroke-miterlimit:10;"/><text x="957.679" y="1982.84" fill="#000" font-size="13" textLength="139.414">_trigger_game_over()</text><polygon points="719.599,2026.039,709.599,2030.039,719.599,2034.039,715.599,2030.039" fill="#181818" style="stroke:#181818;stroke-width:1;stroke-linejoin:miter;stroke-miterlimit:10;"/><line x1="713.599" y1="2030.039" x2="949.679" y2="2030.039" style="stroke:#181818;stroke-width:1;"/><text x="774.573" y="2024.973" fill="#000" font-size="13" textLength="110.132">score = 0 (reset)</text><polygon points="719.599,2055.172,709.599,2059.172,719.599,2063.172,715.599,2059.172" fill="#181818" style="stroke:#181818;stroke-width:1;stroke-linejoin:miter;stroke-miterlimit:10;"/><line x1="713.599" y1="2059.172" x2="949.679" y2="2059.172" style="stroke:#181818;stroke-width:1;"/><text x="720.599" y="2054.106" fill="#000" font-size="13" textLength="218.08">add_tickets(current_quota_index)</text><polygon points="1271.391,2084.305,1281.391,2088.305,1271.391,2092.305,1275.391,2088.305" fill="#181818" style="stroke:#181818;stroke-width:1;stroke-linejoin:miter;stroke-miterlimit:10;"/><line x1="950.679" y1="2088.305" x2="1277.391" y2="2088.305" style="stroke:#181818;stroke-width:1;"/><text x="982.131" y="2083.239" fill="#000" font-size="13" textLength="269.807">change_scene_to_file("death_room.tscn")</text><path d="M1203.673,2101.305 L1203.673,2141.305 L1362.673,2141.305 L1362.673,2111.305 L1352.673,2101.305 L1203.673,2101.305" style="stroke:#181818;stroke-width:0.5;" fill="#FEFFDD"/><path d="M1352.673,2101.305 L1352.673,2111.305 L1362.673,2111.305 L1352.673,2101.305" style="stroke:#181818;stroke-width:0.5;" fill="#FEFFDD"/><text x="1209.673" y="2118.372" fill="#000" font-size="13" textLength="82.126">0.5s delay →</text><text x="1209.673" y="2133.504" fill="#000" font-size="13" textLength="138.436">press R key → restart</text><?plantuml-src bLR1Zjf84BtxAqgSRCrcX8JsCWgHmB1e99Xb3CCUGcJrsWMqnkvskjj3kEMq7x3QByoNR7NRW4qWcxqXwbNrwrUlgcsuoH161y5odi2Aunw-VVq7GgaG9Yp78cC7c4fPW1zcF7c5Rt_z3S-bDCpzck-OHbWg9ZGtN8h0qwzS54on73H-Bb4aE4EjsHO76TyAI50OL0sKGbr8eO-e8MPoFr1Axi6e4ZsF9KOgwCo91weEC0rpZp8DJtZ1X3b6ri8FTrGmeUf3cHvwew02JzjeTubXQOmKbF8aKpmYms4RQMy_Ou8usUA3qiXCihJ2JcPjh1Fa5lZv0hnSZRYskhheSjMEZf2PNIHbxgAZoFFwVNWKf2xBO66OGV0VHzDn0Fs-zpo3Tn_e07Y0f5IAj8srWr0AOUhunCMb49WONoVKsZZPCR75DF249BJYsvrvWEOj8EFQeD1hiI7vDrnf0udLpl6fD0SdfePAJijdRe-RJ-cuFmQB4UJo3NCY1NVqioIZP5A-UXG_eY9s29aslH6aQ8YTXaP_Qc0u923ZUMoOsgAvTopymAF_Zr7CkO4_NLBimfY29hUnh8boLkvKjUEmWf78WkVCMhU6LcAvCmp9aLK5uqBkKGNUv2oe4nBk-l0Th8bor5gQLnq8d8ujnIDaLW6ISN9kQqnSs-a2zt5TWcNcikzLu-bMAPo0y06w7a33B1QjJAnAGKAs8fSsYbwUdXwV9csGzJPyjjm_TZyHw6Elgt-1NhVxgOqpFCSumuqXJAzxtxr-b2jKTzS1Bt1EGg9QaIO5WYlngaXPfCmYg4RWeKYTo54f11VRUbVvIo95rfMbCAdS2pT7cLrm-8Rg01jQIdYXLg5aGkl9Jp4pBBXrntTzS80hx2n8dTYTKiwbbYk2Ld58g-rmudySDYaC5oNMCs9lT9muP-_sN3ZpiJIj7E3_F-S-dr17rnt7wTQwM8jSqewIIbTvZhXL6iPV2aux_c9RdLLxtmVhZARS-CQoafIed47ScsjiX_G8DNRpVNsUdONQxVthrl8NBs4uNYo26_OYlUrqbedjTT--FcTaGpVY2pxT24tm8pzpglRbxkx7q-MMzFTi2eNsSRHRAIwiQrlMR_QWzaR21Es_mrgKnLQnbEJc0lHE5XvcvFcA-FiRilmsU9o-HEEVasN3gE1_x8p9O3QEVr-DeuinCaIQEXPlgNinFGtA_sc1JtOsTcqRxLyH-umUHSufrhdaVnGO6nblU8P-9xNFQwpeVRqtEX6Taw2M3oK-a1j_rNQGwR6WBvore6Pe3H6yell3Vh3OPjZn_1S0?></g></svg>