<svg xmlns="http://www.w3.org/2000/svg" xmlns:xlink="http://www.w3.org/1999/xlink" version="1.1" data-diagram-type="DESCRIPTION" style="width:2177px;height:1508px;background:#FFFFFF;" width="2177px" height="1508px" viewBox="0 0 2177 1508" zoomAndPan="magnify" preserveAspectRatio="none" contentStyleType="text/css"><?plantuml 1.2026.7beta6?><defs/><g font-family="sans-serif" lengthAdjust="spacing"><g class="title" data-source-line="1"><text x="891.305" y="22.995" fill="#000" font-size="14" textLength="388.192" font-weight="700">Click to Live — Static View (Component Diagram)</text></g><!--cluster Click to Live (Godot 4.6 / GDScript)--><g class="cluster" data-qualified-name="Click to Live .Godot 4.6 . GDScript." id="ent0002" data-source-line="11"><rect x="7" y="246.437" width="1480" height="1248.45" fill="none" style="stroke:#181818;stroke-width:1;" rx="2.5" ry="2.5"/><text x="648.628" y="257.719" fill="#000" font-size="10" textLength="196.743" font-weight="700">Click to Live (Godot 4.6 / GDScript)</text></g><!--cluster Player Interaction--><g class="cluster" data-qualified-name="Click to Live .Godot 4.6 . GDScript..Player Interaction" id="ent0003" data-source-line="13"><rect x="510" y="284.437" width="148" height="332.56" fill="none" style="stroke:#181818;stroke-width:1;" rx="2.5" ry="2.5"/><text x="533.287" y="295.719" fill="#000" font-size="10" textLength="101.426" font-weight="700">Player Interaction</text></g><!--cluster Core Systems (Autoload)--><g class="cluster" data-qualified-name="Click to Live .Godot 4.6 . GDScript..Core Systems .Autoload." id="ent0006" data-source-line="18"><rect x="395" y="806.737" width="278" height="648.15" fill="none" style="stroke:#181818;stroke-width:1;" rx="2.5" ry="2.5"/><text x="463.827" y="818.019" fill="#000" font-size="10" textLength="140.347" font-weight="700">Core Systems (Autoload)</text></g><!--cluster Shop & Progression--><g class="cluster" data-qualified-name="Click to Live .Godot 4.6 . GDScript..Shop . Progression" id="ent0010" data-source-line="24"><rect x="770" y="290.257" width="127" height="594.12" fill="none" style="stroke:#181818;stroke-width:1;" rx="2.5" ry="2.5"/><text x="777.821" y="301.539" fill="#000" font-size="10" textLength="111.357" font-weight="700">Shop &amp; Progression</text></g><!--cluster CA--><g class="cluster" data-qualified-name="Click to Live .Godot 4.6 . GDScript..CA" id="ent0014" data-source-line="30"><rect x="1041" y="798.737" width="414" height="664.15" fill="none" style="stroke:#181818;stroke-width:1;" rx="2.5" ry="2.5"/><text x="1177.583" y="810.019" fill="#000" font-size="10" textLength="140.835" font-weight="700">Click Actions (Decorator)</text></g><!--cluster Presentation--><g class="cluster" data-qualified-name="Click to Live .Godot 4.6 . GDScript..Presentation" id="ent0020" data-source-line="38"><rect x="175" y="1109.867" width="102" height="77.64" fill="none" style="stroke:#181818;stroke-width:1;" rx="2.5" ry="2.5"/><text x="189.689" y="1121.149" fill="#000" font-size="10" textLength="72.622" font-weight="700">Presentation</text></g><!--cluster Scenes--><g class="cluster" data-qualified-name="Click to Live .Godot 4.6 . GDScript..Scenes" id="ent0022" data-source-line="42"><rect x="31" y="1377.247" width="340" height="77.64" fill="none" style="stroke:#181818;stroke-width:1;" rx="2.5" ry="2.5"/><text x="181.117" y="1388.529" fill="#000" font-size="10" textLength="39.766" font-weight="700">Scenes</text></g><!--entity P--><g class="entity" data-qualified-name="Click to Live .Godot 4.6 . GDScript..Player Interaction.P" id="ent0004" data-source-line="14"><rect x="525.76" y="314.437" width="116.479" height="43.281" fill="#F1F1F1" style="stroke:#181818;stroke-width:0.5;" rx="2.5" ry="2.5"/><text x="535.76" y="333.719" fill="#000" font-size="10" textLength="31.118">Player</text><text x="535.76" y="345.36" fill="#000" font-size="10" textLength="96.479">(CharacterBody3D)</text></g><!--entity CB--><g class="entity" data-qualified-name="Click to Live .Godot 4.6 . GDScript..Player Interaction.CB" id="ent0005" data-source-line="15"><rect x="545.34" y="557.717" width="77.324" height="43.281" fill="#F1F1F1" style="stroke:#181818;stroke-width:0.5;" rx="2.5" ry="2.5"/><text x="555.34" y="576.999" fill="#000" font-size="10" textLength="57.324">ClickButton</text><text x="555.34" y="588.64" fill="#000" font-size="10" textLength="47.964">(Node3D)</text></g><!--entity GM--><g class="entity" data-qualified-name="Click to Live .Godot 4.6 . GDScript..Core Systems .Autoload..GM" id="ent0007" data-source-line="19"><rect x="537.2" y="836.737" width="93.604" height="31.641" fill="#F1F1F1" style="stroke:#181818;stroke-width:0.5;" rx="2.5" ry="2.5"/><text x="547.2" y="856.019" fill="#000" font-size="10" textLength="73.604">GameManager</text></g><!--entity QM--><g class="entity" data-qualified-name="Click to Live .Godot 4.6 . GDScript..Core Systems .Autoload..QM" id="ent0008" data-source-line="20"><rect x="410.9" y="1139.867" width="94.209" height="31.641" fill="#F1F1F1" style="stroke:#181818;stroke-width:0.5;" rx="2.5" ry="2.5"/><text x="420.9" y="1159.149" fill="#000" font-size="10" textLength="74.209">QuotaManager</text></g><!--entity EV--><g class="entity" data-qualified-name="Click to Live .Godot 4.6 . GDScript..Core Systems .Autoload..EV" id="ent0009" data-source-line="21"><rect x="554.07" y="1407.247" width="53.857" height="31.641" fill="#F1F1F1" style="stroke:#181818;stroke-width:0.5;" rx="2.5" ry="2.5"/><text x="564.07" y="1426.529" fill="#000" font-size="10" textLength="33.857">Events</text></g><!--entity SHOP--><g class="entity" data-qualified-name="Click to Live .Godot 4.6 . GDScript..Shop . Progression.SHOP" id="ent0011" data-source-line="25"><rect x="791.78" y="320.257" width="82.441" height="31.641" fill="#F1F1F1" style="stroke:#181818;stroke-width:0.5;" rx="2.5" ry="2.5"/><text x="801.78" y="339.539" fill="#000" font-size="10" textLength="62.441">ShopSystem</text></g><!--entity SLOT--><g class="entity" data-qualified-name="Click to Live .Godot 4.6 . GDScript..Shop . Progression.SLOT" id="ent0012" data-source-line="26"><rect x="800.84" y="563.537" width="64.316" height="31.641" fill="#F1F1F1" style="stroke:#181818;stroke-width:0.5;" rx="2.5" ry="2.5"/><text x="810.84" y="582.819" fill="#000" font-size="10" textLength="44.316">ShopSlot</text></g><!--entity CF--><g class="entity" data-qualified-name="Click to Live .Godot 4.6 . GDScript..Shop . Progression.CF" id="ent0013" data-source-line="27"><rect x="792.36" y="836.737" width="81.274" height="31.641" fill="#F1F1F1" style="stroke:#181818;stroke-width:0.5;" rx="2.5" ry="2.5"/><text x="802.36" y="856.019" fill="#000" font-size="10" textLength="61.274">ClickFactory</text></g><!--entity ICA--><g class="entity" data-qualified-name="Click to Live .Godot 4.6 . GDScript..CA.ICA" id="ent0015" data-source-line="31"><rect x="1161.86" y="836.737" width="78.271" height="31.641" fill="#F1F1F1" style="stroke:#181818;stroke-width:0.5;" rx="2.5" ry="2.5"/><text x="1171.86" y="856.019" fill="#000" font-size="10" textLength="58.271">IClickAction</text></g><!--entity BASE--><g class="entity" data-qualified-name="Click to Live .Godot 4.6 . GDScript..CA.BASE" id="ent0016" data-source-line="32"><rect x="1110.91" y="1139.867" width="68.179" height="31.641" fill="#F1F1F1" style="stroke:#181818;stroke-width:0.5;" rx="2.5" ry="2.5"/><text x="1120.91" y="1159.149" fill="#000" font-size="10" textLength="48.179">ClickBase</text></g><!--entity DEC--><g class="entity" data-qualified-name="Click to Live .Godot 4.6 . GDScript..CA.DEC" id="ent0017" data-source-line="33"><rect x="1329.16" y="1139.867" width="93.687" height="31.641" fill="#F1F1F1" style="stroke:#181818;stroke-width:0.5;" rx="2.5" ry="2.5"/><text x="1339.16" y="1159.149" fill="#000" font-size="10" textLength="73.687">ClickDecorator</text></g><!--entity ADD--><g class="entity" data-qualified-name="Click to Live .Godot 4.6 . GDScript..CA.ADD" id="ent0018" data-source-line="34"><rect x="1064.89" y="1407.247" width="94.229" height="31.641" fill="#F1F1F1" style="stroke:#181818;stroke-width:0.5;" rx="2.5" ry="2.5"/><text x="1074.89" y="1426.529" fill="#000" font-size="10" textLength="74.229">AddClickBonus</text></g><!--entity MULT--><g class="entity" data-qualified-name="Click to Live .Godot 4.6 . GDScript..CA.MULT" id="ent0019" data-source-line="35"><rect x="1308.91" y="1407.247" width="114.18" height="31.641" fill="#F1F1F1" style="stroke:#181818;stroke-width:0.5;" rx="2.5" ry="2.5"/><text x="1318.91" y="1426.529" fill="#000" font-size="10" textLength="94.18">MultiplyClickBonus</text></g><!--entity TV--><g class="entity" data-qualified-name="Click to Live .Godot 4.6 . GDScript..Presentation.TV" id="ent0021" data-source-line="39"><rect x="191.1" y="1139.867" width="69.81" height="31.641" fill="#F1F1F1" style="stroke:#181818;stroke-width:0.5;" rx="2.5" ry="2.5"/><text x="201.1" y="1159.149" fill="#000" font-size="10" textLength="49.81">TVDisplay</text></g><!--entity GR--><g class="entity" data-qualified-name="Click to Live .Godot 4.6 . GDScript..Scenes.GR" id="ent0023" data-source-line="43"><rect x="46.65" y="1407.247" width="78.696" height="31.641" fill="#F1F1F1" style="stroke:#181818;stroke-width:0.5;" rx="2.5" ry="2.5"/><text x="56.65" y="1426.529" fill="#000" font-size="10" textLength="58.696">GameRoom</text></g><!--entity DR--><g class="entity" data-qualified-name="Click to Live .Godot 4.6 . GDScript..Scenes.DR" id="ent0024" data-source-line="44"><rect x="275.42" y="1407.247" width="79.165" height="31.641" fill="#F1F1F1" style="stroke:#181818;stroke-width:0.5;" rx="2.5" ry="2.5"/><text x="285.42" y="1426.529" fill="#000" font-size="10" textLength="59.165">DeathRoom</text></g><!--entity USER--><g class="entity" data-qualified-name="USER" id="ent0001" data-source-line="9"><ellipse cx="707.999" cy="51.297" rx="8" ry="8" fill="#F1F1F1" style="stroke:#181818;stroke-width:0.5;"/><path d="M707.999,59.297 L707.999,86.297 M694.999,67.297 L720.999,67.297 M707.999,86.297 L694.999,101.297 M707.999,86.297 L720.999,101.297" style="stroke:#181818;stroke-width:0.5;" fill="none"/><text x="692.44" y="112.079" fill="#000" font-size="10" textLength="31.118">Player</text></g><g class="entity" data-qualified-name="GMN45" id="ent0046" data-source-line="76"><path d="M1597,800.997 L1597,904.122 L1753.01,904.122 L1753.01,810.997 L1743.01,800.997 L1597,800.997" style="stroke:#181818;stroke-width:0.5;" fill="#FEFFDD"/><path d="M1743.01,800.997 L1743.01,810.997 L1753.01,810.997 L1743.01,800.997" style="stroke:#181818;stroke-width:1;" fill="#FEFFDD"/><text x="1603" y="815.279" fill="#000" font-size="10" textLength="81.597" font-weight="700">GameManager</text><text x="1603" y="826.92" fill="#000" font-size="10" textLength="73.506">- score, tickets</text><text x="1603" y="838.56" fill="#000" font-size="10" textLength="93.877">- base_click_power</text><text x="1603" y="850.201" fill="#000" font-size="10" textLength="101.675">- additive_bonuses[]</text><text x="1603" y="861.842" fill="#000" font-size="10" textLength="129.16">- multiplicative_bonuses[]</text><text x="1603" y="873.482" fill="#000" font-size="10" textLength="92.905">- total_click_power</text><text x="1603" y="885.123" fill="#000" font-size="10" textLength="120.894">Signals: score_changed,</text><text x="1631.608" y="896.763" fill="#000" font-size="10" textLength="106.401">click_power_changed</text></g><g class="entity" data-qualified-name="GMN48" id="ent0049" data-source-line="87"><path d="M1572.59,1104.117 L1572.59,1207.242 L1773.404,1207.242 L1773.404,1114.117 L1763.404,1104.117 L1572.59,1104.117" style="stroke:#181818;stroke-width:0.5;" fill="#FEFFDD"/><path d="M1763.404,1104.117 L1763.404,1114.117 L1773.404,1114.117 L1763.404,1104.117" style="stroke:#181818;stroke-width:1;" fill="#FEFFDD"/><text x="1578.59" y="1118.399" fill="#000" font-size="10" textLength="83.457" font-weight="700">QuotaManager</text><text x="1578.59" y="1130.04" fill="#000" font-size="10" textLength="177.866">- state: IDLE/RUNNING/GAME_OVER</text><text x="1578.59" y="1141.68" fill="#000" font-size="10" textLength="179.814">- quotas: [[30s, 300], [30s, 800], ...]</text><text x="1578.59" y="1153.321" fill="#000" font-size="10" textLength="50.752">- time_left</text><text x="1578.59" y="1164.962" fill="#000" font-size="10" textLength="112.69">- current_quota_target</text><text x="1578.59" y="1176.602" fill="#000" font-size="10" textLength="103.232">Signals: run_started,</text><text x="1607.198" y="1188.243" fill="#000" font-size="10" textLength="56.304">run_ended,</text><text x="1607.198" y="1199.883" fill="#000" font-size="10" textLength="73.286">timer_updated</text></g><g class="entity" data-qualified-name="GMN51" id="ent0052" data-source-line="98"><path d="M1903.19,824.277 L1903.19,880.839 L2162.803,880.839 L2162.803,834.277 L2152.803,824.277 L1903.19,824.277" style="stroke:#181818;stroke-width:0.5;" fill="#FEFFDD"/><path d="M2152.803,824.277 L2152.803,834.277 L2162.803,834.277 L2152.803,824.277" style="stroke:#181818;stroke-width:1;" fill="#FEFFDD"/><text x="1909.19" y="838.559" fill="#000" font-size="10" textLength="102.095" font-weight="700">Decorator Pattern</text><text x="1909.19" y="850.2" fill="#000" font-size="10" textLength="238.613">Click power = (base + additive) * multiplicative</text><text x="1909.19" y="861.84" fill="#000" font-size="10" textLength="121.987">Allows stacking bonuses</text><text x="1909.19" y="873.481" fill="#000" font-size="10" textLength="143.013">without modifying core code</text></g><!--link USER to P--><g class="link" data-entity-1="ent0001" data-entity-2="ent0004" id="lnk25" data-source-line="49" data-link-type="dependency"><path d="M702.81,114.667 C702.81,186.777 702.81,341.887 702.81,341.887 C702.81,341.887 677.64,341.887 647.71,341.887" style="stroke:#181818;stroke-width:1;" fill="none" id="USER-to-P"/><polygon points="642.71,341.887,651.71,345.887,647.71,341.887,651.71,337.887,642.71,341.887" fill="#181818" style="stroke:#181818;stroke-width:1;stroke-linejoin:miter;stroke-miterlimit:10;"/><text x="624.81" y="268.609" fill="#000" font-size="10" textLength="77.959">WASD + Mouse</text></g><!--link P to CB--><g class="link" data-entity-1="ent0004" data-entity-2="ent0005" id="lnk26" data-source-line="50" data-link-type="dependency"><path d="M584,358.097 C584,404.407 584,506.437 584,552.567" style="stroke:#181818;stroke-width:1;" fill="none" id="P-to-CB"/><polygon points="584,557.567,588,548.567,584,552.567,580,548.567,584,557.567" fill="#181818" style="stroke:#181818;stroke-width:1;stroke-linejoin:miter;stroke-miterlimit:10;"/><text x="488" y="455.109" fill="#000" font-size="10" textLength="95.679">RayCast3D detects</text></g><!--link CB to GM--><g class="link" data-entity-1="ent0005" data-entity-2="ent0007" id="lnk27" data-source-line="51" data-link-type="dependency"><path d="M584,601.247 C584,654.437 584,784.467 584,831.287" style="stroke:#181818;stroke-width:1;" fill="none" id="CB-to-GM"/><polygon points="584,836.287,588,827.287,584,831.287,580,827.287,584,836.287" fill="#181818" style="stroke:#181818;stroke-width:1;stroke-linejoin:miter;stroke-miterlimit:10;"/><text x="476" y="716.049" fill="#000" font-size="10" textLength="107.207">click() -> add_score()</text></g><!--link GM to QM--><g class="link" data-entity-1="ent0007" data-entity-2="ent0008" id="lnk28" data-source-line="53" data-link-type="dependency"><path d="M542.82,868.857 C542.82,930.767 542.82,1147.887 542.82,1147.887 C542.82,1147.887 529.8,1147.887 510.37,1147.887" style="stroke:#181818;stroke-width:1;" fill="none" id="GM-to-QM"/><polygon points="505.37,1147.887,514.37,1151.887,510.37,1147.887,514.37,1143.887,505.37,1147.887" fill="#181818" style="stroke:#181818;stroke-width:1;stroke-linejoin:miter;stroke-miterlimit:10;"/><text x="434.82" y="1024.379" fill="#000" font-size="10" textLength="107.998">score_changed signal</text></g><!--link QM to GM--><g class="link" data-entity-1="ent0008" data-entity-2="ent0007" id="lnk29" data-source-line="54" data-link-type="dependency"><path d="M505.34,1155.887 C527.23,1155.887 548.45,1155.887 548.45,1155.887 C548.45,1155.887 548.45,936.867 548.45,873.867" style="stroke:#181818;stroke-width:1;" fill="none" id="QM-to-GM"/><polygon points="548.45,868.867,544.45,877.867,548.45,873.867,552.45,877.867,548.45,868.867" fill="#181818" style="stroke:#181818;stroke-width:1;stroke-linejoin:miter;stroke-miterlimit:10;"/><text x="492.45" y="1044.209" fill="#000" font-size="10" textLength="55.815">reset score</text></g><!--link QM to EV--><g class="link" data-entity-1="ent0008" data-entity-2="ent0009" id="lnk30" data-source-line="55" data-link-type="dependency"><path d="M505.37,1163.887 C536.69,1163.887 572.02,1163.887 572.02,1163.887 C572.02,1163.887 572.02,1345.117 572.02,1401.857" style="stroke:#181818;stroke-width:1;" fill="none" id="QM-to-EV"/><polygon points="572.02,1406.857,576.02,1397.857,572.02,1401.857,568.02,1397.857,572.02,1406.857" fill="#181818" style="stroke:#181818;stroke-width:1;stroke-linejoin:miter;stroke-miterlimit:10;"/><text x="505.02" y="1249.319" fill="#000" font-size="10" textLength="66.719">reset_game()</text></g><!--link EV to GM--><g class="link" data-entity-1="ent0009" data-entity-2="ent0007" id="lnk31" data-source-line="56" data-link-type="dependency"><path d="M589.98,1406.907 C589.98,1324.497 589.98,956.567 589.98,873.847" style="stroke:#181818;stroke-width:1;" fill="none" id="EV-to-GM"/><polygon points="589.98,868.847,585.98,877.847,589.98,873.847,593.98,877.847,589.98,868.847" fill="#181818" style="stroke:#181818;stroke-width:1;stroke-linejoin:miter;stroke-miterlimit:10;"/><text x="527.98" y="1135.159" fill="#000" font-size="10" textLength="61.997">reset tickets</text></g><!--link QM to DR--><g class="link" data-entity-1="ent0008" data-entity-2="ent0024" id="lnk32" data-source-line="57" data-link-type="dependency"><path d="M410.78,1155.887 C369.13,1155.887 315,1155.887 315,1155.887 C315,1155.887 315,1343.747 315,1401.757" style="stroke:#181818;stroke-width:1;" fill="none" id="QM-to-DR"/><polygon points="315,1406.757,319,1397.757,315,1401.757,311,1397.757,315,1406.757" fill="#181818" style="stroke:#181818;stroke-width:1;stroke-linejoin:miter;stroke-miterlimit:10;"/><text x="185" y="1230.709" fill="#000" font-size="10" textLength="129.575">change_scene() on failure</text></g><!--link USER to SHOP--><g class="link" data-entity-1="ent0001" data-entity-2="ent0011" id="lnk33" data-source-line="59" data-link-type="dependency"><path d="M713.19,114.757 C713.19,184.517 713.19,330.887 713.19,330.887 C713.19,330.887 751.83,330.887 786.43,330.887" style="stroke:#181818;stroke-width:1;" fill="none" id="USER-to-SHOP"/><polygon points="791.43,330.887,782.43,326.887,786.43,330.887,782.43,334.887,791.43,330.887" fill="#181818" style="stroke:#181818;stroke-width:1;stroke-linejoin:miter;stroke-miterlimit:10;"/><text x="714.19" y="272.229" fill="#000" font-size="10" textLength="38.848">interact</text></g><!--link SHOP to SLOT--><g class="link" data-entity-1="ent0011" data-entity-2="ent0012" id="lnk34" data-source-line="60" data-link-type="dependency"><path d="M833,352.037 C833,396.117 833,514.187 833,558.337" style="stroke:#181818;stroke-width:1;" fill="none" id="SHOP-to-SLOT"/><polygon points="833,563.337,837,554.337,833,558.337,829,554.337,833,563.337" fill="#181818" style="stroke:#181818;stroke-width:1;stroke-linejoin:miter;stroke-miterlimit:10;"/><text x="765" y="454.969" fill="#000" font-size="10" textLength="67.251">manage slots</text></g><!--link SLOT to GM--><g class="link" data-entity-1="ent0012" data-entity-2="ent0007" id="lnk35" data-source-line="61" data-link-type="dependency"><path d="M800.53,579.887 C742.75,579.887 628.09,579.887 628.09,579.887 C628.09,579.887 628.09,772.617 628.09,831.317" style="stroke:#181818;stroke-width:1;" fill="none" id="SLOT-to-GM"/><polygon points="628.09,836.317,632.09,827.317,628.09,831.317,624.09,827.317,628.09,836.317" fill="#181818" style="stroke:#181818;stroke-width:1;stroke-linejoin:miter;stroke-miterlimit:10;"/><text x="557.09" y="619.159" fill="#000" font-size="10" textLength="70.288">spend_score()</text></g><!--link SLOT to CF--><g class="link" data-entity-1="ent0012" data-entity-2="ent0013" id="lnk36" data-source-line="62" data-link-type="dependency"><path d="M833,595.627 C833,644.217 833,782.887 833,831.377" style="stroke:#181818;stroke-width:1;" fill="none" id="SLOT-to-CF"/><polygon points="833,836.377,837,827.377,833,831.377,829,827.377,833,836.377" fill="#181818" style="stroke:#181818;stroke-width:1;stroke-linejoin:miter;stroke-miterlimit:10;"/><text x="749" y="713.279" fill="#000" font-size="10" textLength="83.184">request upgrade</text></g><!--link CF to BASE--><g class="link" data-entity-1="ent0013" data-entity-2="ent0016" id="lnk37" data-source-line="63" data-link-type="dependency"><path d="M873.92,847.887 C956.73,847.887 1136.39,847.887 1136.39,847.887 C1136.39,847.887 1136.39,1071.237 1136.39,1134.567" style="stroke:#181818;stroke-width:1;" fill="none" id="CF-to-BASE"/><polygon points="1136.39,1139.567,1140.39,1130.567,1136.39,1134.567,1132.39,1130.567,1136.39,1139.567" fill="#181818" style="stroke:#181818;stroke-width:1;stroke-linejoin:miter;stroke-miterlimit:10;"/><text x="1098.39" y="859.779" fill="#000" font-size="10" textLength="37.173">creates</text></g><!--link CF to ADD--><g class="link" data-entity-1="ent0013" data-entity-2="ent0018" id="lnk38" data-source-line="64" data-link-type="dependency"><path d="M873.95,857.887 C946.01,857.887 1087.9,857.887 1087.9,857.887 C1087.9,857.887 1087.9,1309.097 1087.9,1401.757" style="stroke:#181818;stroke-width:1;" fill="none" id="CF-to-ADD"/><polygon points="1087.9,1406.757,1091.9,1397.757,1087.9,1401.757,1083.9,1397.757,1087.9,1406.757" fill="#181818" style="stroke:#181818;stroke-width:1;stroke-linejoin:miter;stroke-miterlimit:10;"/><text x="1022.9" y="1022.639" fill="#000" font-size="10" textLength="64.014">creates (+N)</text></g><!--link CF to MULT--><g class="link" data-entity-1="ent0013" data-entity-2="ent0019" id="lnk39" data-source-line="65" data-link-type="dependency"><path d="M833,868.517 C833,877.477 833,886.887 833,886.887 C833,886.887 1319.03,886.887 1319.03,886.887 C1319.03,886.887 1319.03,1312.807 1319.03,1402.017" style="stroke:#181818;stroke-width:1;" fill="none" id="CF-to-MULT"/><polygon points="1319.03,1407.017,1323.03,1398.017,1319.03,1402.017,1315.03,1398.017,1319.03,1407.017" fill="#181818" style="stroke:#181818;stroke-width:1;stroke-linejoin:miter;stroke-miterlimit:10;"/><text x="1257.03" y="892.029" fill="#000" font-size="10" textLength="61.553">creates (xN)</text></g><!--reverse link ICA to BASE--><g class="link" data-entity-1="ent0015" data-entity-2="ent0016" id="lnk40" data-source-line="67" data-link-type="extension"><path d="M1170.48,886.857 C1170.48,939.607 1170.48,1087.327 1170.48,1139.677" style="stroke:#181818;stroke-width:1;" fill="none" id="ICA-backto-BASE"/><polygon points="1170.48,868.857,1164.48,886.857,1176.48,886.857,1170.48,868.857" fill="none" style="stroke:#181818;stroke-width:1;stroke-linejoin:miter;stroke-miterlimit:10;"/></g><!--reverse link ICA to DEC--><g class="link" data-entity-1="ent0015" data-entity-2="ent0017" id="lnk41" data-source-line="68" data-link-type="extension"><path d="M1219.79,886.597 C1219.79,948.567 1219.79,1150.887 1219.79,1150.887 C1219.79,1150.887 1282.73,1150.887 1328.71,1150.887" style="stroke:#181818;stroke-width:1;" fill="none" id="ICA-backto-DEC"/><polygon points="1219.79,868.597,1213.79,886.597,1225.79,886.597,1219.79,868.597" fill="none" style="stroke:#181818;stroke-width:1;stroke-linejoin:miter;stroke-miterlimit:10;"/></g><!--reverse link DEC to ADD--><g class="link" data-entity-1="ent0017" data-entity-2="ent0018" id="lnk42" data-source-line="69" data-link-type="extension"><path d="M1310.68,1161.887 C1258.38,1161.887 1199.44,1161.887 1199.44,1161.887 C1199.44,1161.887 1199.44,1423.887 1199.44,1423.887 C1199.44,1423.887 1180.07,1423.887 1159.56,1423.887" style="stroke:#181818;stroke-width:1;" fill="none" id="DEC-backto-ADD"/><polygon points="1328.68,1161.887,1310.68,1155.887,1310.68,1167.887,1328.68,1161.887" fill="none" style="stroke:#181818;stroke-width:1;stroke-linejoin:miter;stroke-miterlimit:10;"/></g><!--reverse link DEC to MULT--><g class="link" data-entity-1="ent0017" data-entity-2="ent0019" id="lnk43" data-source-line="70" data-link-type="extension"><path d="M1376,1189.607 C1376,1237.057 1376,1359.117 1376,1406.887" style="stroke:#181818;stroke-width:1;" fill="none" id="DEC-backto-MULT"/><polygon points="1376,1171.607,1370,1189.607,1382,1189.607,1376,1171.607" fill="none" style="stroke:#181818;stroke-width:1;stroke-linejoin:miter;stroke-miterlimit:10;"/></g><!--link GM to TV--><g class="link" data-entity-1="ent0007" data-entity-2="ent0021" id="lnk44" data-source-line="72" data-link-type="dependency"><path d="M536.83,852.887 C439.62,852.887 226,852.887 226,852.887 C226,852.887 226,1071.507 226,1134.407" style="stroke:#181818;stroke-width:1;" fill="none" id="GM-to-TV"/><polygon points="226,1139.407,230,1130.407,226,1134.407,222,1130.407,226,1139.407" fill="#181818" style="stroke:#181818;stroke-width:1;stroke-linejoin:miter;stroke-miterlimit:10;"/><text x="164.16" y="850.169" fill="#000" font-size="10" textLength="73.921">update display</text></g><!--link GM to GMN45--><g class="link" data-entity-1="ent0007" data-entity-2="ent0046" id="lnk47" data-source-line="76" data-link-type="association"><path d="M625.38,836.507 C625.38,827.837 625.38,818.887 625.38,818.887 C625.38,818.887 1352.86,818.887 1596.54,818.887" style="stroke:#181818;stroke-width:1;stroke-dasharray:7,7;" fill="none" id="GM-GMN45"/></g><!--link QM to GMN48--><g class="link" data-entity-1="ent0008" data-entity-2="ent0049" id="lnk50" data-source-line="87" data-link-type="association"><path d="M458,1171.987 C458,1180.797 458,1189.887 458,1189.887 C458,1189.887 1280.95,1189.887 1572.28,1189.887" style="stroke:#181818;stroke-width:1;stroke-dasharray:7,7;" fill="none" id="QM-GMN48"/></g><!--link CA to GMN51--><g class="link" data-entity-1="ent0014" data-entity-2="ent0052" id="lnk53" data-source-line="98" data-link-type="association"><path d="M1447,798.016 C1447,797.47 1447,796.923 1447,796.374 C1447,795.276 1447,794.172 1447,793.063 C1447,790.846 1447,788.609 1447,786.362 C1447,781.867 1447,777.328 1447,772.811 C1447,736.669 1447,701.887 1447,701.887 C1447,701.887 2033,701.887 2033,701.887 C2033,701.887 2033,780.147 2033,823.867" style="stroke:#181818;stroke-width:1;stroke-dasharray:7,7;" fill="none" id="CA-GMN51"/></g><?plantuml-src TLRRRkCs47tNLmpoqDhUEF4ssw9OD0LaIV4Qy5sE-v0k1Av4sqHaKajIcthR1VeH_S9-IOUavQYA4YI1EUTmE9SpasYcSmf1pj97q08cx0k5V__-1s9DD4jXm-WJT09nA0IdN4F8o4wIGzTJZumN13z2Me6nFg8hILDD-2wdDKf1qaUoeuwmHKiTv2AZYXRmziT1pIe9VpJM7mPrQyuurSU2Wf1wBsf0HhUapFMTm33OLmfl1vv7KYqaN2noSgJo0eY2-pXQUTuvGhZuVzwTaSY4XdTNFy4rZC8ubQpGtGluqmF0xzezvnF6N5E9pp317Qk5z3ll17jYM5GEHNQy2RisbaMJRcCPbbeBZdTcM9MA6WoH--r5486G5EAZqlIWeEENMkI2PDsMI4POyIdXs09NXz6qoLYMGfCwPVc24dt17YiBHflMWEAzAE0xM4YnarIfzgeOaWlQkee_p1Ujb5neHvZCrwsbkhFzFReAtRLNoBRNjmt24eKq5PBWfLDP_PVHZUqL_zHI98q3lxrHH55B6FfnrCeulsPfOHGqMNwMELU2bwwkVXWsILDKDIloOuCvlP-iMrDUOEMnJ-GLJQut8LC52jDwMR_InvHogbxHqKe8rxdHgWc7bEZz6GzNrlatp_iURczl8PZFPb6m7izdiJbxPXYXt_yL5l0UVlFZ4Dx0L9IAUWjh3ePeNv5ZG9I-2N72DRwaF3GRT3H5D3L5wNG1poJB4eK5fvskvo5eE4l3iSOatMECD0F5TfpatdBwxCGKJ3jQPOysbJtPOShe4YsD2xWT7od6SxeIhamyzXMC0-k7OGaEMyBo4Xq_Psi4ZrHsMXsUFLi0XOx0mGuXADI_ygpj_B0gA7_Eyem5TpQepoLL6ie2ztD6FJGQpAZJ12QnDLHLLjJPin4wRsRT2Z6wgaD_8EJX3C0lV_NxJkldav4q_hY3aUxvODLPTM5jYbaM6Jg4p8claiGa6aMpqCc12yGbs-qrYAtRKBrURN7rUcZfkpvTdgjlJ9zm51ChXQGGJrHQ8-g1QLpgoISpCrGzVBJcWnidbf8MKECEp1kUOYiOrT3HfPN-wQjseS8zR1IOZBn6NakNLttTLedXpDBtC0udqVNgVZORpqRN8tyQ9VDDjBACp-OIHlBmS3DGbt0p67oy1FVvP_lvwkhgb0Wxq2IdMsrFQIabheJ4tayqaJkgwvd9aYVukjIDl8mTysXOZM-Pk7w-dgVTchtUUGV2WcWKFBV9khLi2mQtq37zmzclEjQ5NgDDUCNFS_6aJ95I_9k_WrFZ47bY-9z0gU4WChOz6imq2d_X45JH_GS0?></g></svg>